HIERARCHY
ROOT root
{
  OFFSET 0 82.5076 0
  CHANNELS 6 Xposition Yposition Zposition Zrotation Xrotation Yrotation
  JOINT torso_1
  {
    OFFSET 0 4.49154 -1.01827
    CHANNELS 6 Xposition Yposition Zposition Zrotation Xrotation Yrotation
    JOINT torso_2
    {
      OFFSET 0 4.9673 0.947562
      CHANNELS 6 Xposition Yposition Zposition Zrotation Xrotation Yrotation
      JOINT torso_3
      {
        OFFSET -9.07426e-18 5.29732 0.101714
        CHANNELS 6 Xposition Yposition Zposition Zrotation Xrotation Yrotation
        JOINT torso_4
        {
          OFFSET -9.7687e-18 5.75371 -0.392248
          CHANNELS 6 Xposition Yposition Zposition Zrotation Xrotation Yrotation
          JOINT torso_5
          {
            OFFSET -1.74486e-17 6.72623 -1.33183
            CHANNELS 6 Xposition Yposition Zposition Zrotation Xrotation Yrotation
            JOINT torso_6
            {
              OFFSET -2.24023e-17 8.3994 -0.808771
              CHANNELS 6 Xposition Yposition Zposition Zrotation Xrotation Yrotation
              JOINT torso_7
              {
                OFFSET -2.56828e-17 9.33154 1.39461
                CHANNELS 6 Xposition Yposition Zposition Zrotation Xrotation Yrotation
                JOINT neck_1
                {
                  OFFSET -1.14257e-17 4.2331 0.632641
                  CHANNELS 6 Xposition Yposition Zposition Zrotation Xrotation Yrotation
                  JOINT neck_2
                  {
                    OFFSET -1.60217e-17 4.26374 0.373029
                    CHANNELS 6 Xposition Yposition Zposition Zrotation Xrotation Yrotation
                    JOINT head
                    {
                      OFFSET -1.77726e-17 4.27198 0.676615
                      CHANNELS 6 Xposition Yposition Zposition Zrotation Xrotation Yrotation
                      End Site
                      {
                        OFFSET 0 0.1 0
                      }
                    }
                  }
                }
                JOINT l_shoulder
                {
                  OFFSET 1.09045 -6.72785 6.66279
                  CHANNELS 6 Xposition Yposition Zposition Zrotation Xrotation Yrotation
                  JOINT l_up_arm
                  {
                    OFFSET 11.4571 2.87384 -2.89083
                    CHANNELS 6 Xposition Yposition Zposition Zrotation Xrotation Yrotation
                    JOINT l_low_arm
                    {
                      OFFSET 25.8314 0.0528939 0.121196
                      CHANNELS 6 Xposition Yposition Zposition Zrotation Xrotation Yrotation
                      JOINT l_hand
                      {
                        OFFSET 21.4323 0.0438853 0.100557
                        CHANNELS 6 Xposition Yposition Zposition Zrotation Xrotation Yrotation
                        End Site
                        {
                          OFFSET 0.1 0 0
                        }
                      }
                    }
                  }
                }
                JOINT r_shoulder
                {
                  OFFSET -1.09045 -6.72784 6.66271
                  CHANNELS 6 Xposition Yposition Zposition Zrotation Xrotation Yrotation
                  JOINT r_up_arm
                  {
                    OFFSET -11.4571 2.87384 -2.89083
                    CHANNELS 6 Xposition Yposition Zposition Zrotation Xrotation Yrotation
                    JOINT r_low_arm
                    {
                      OFFSET -25.8314 0.0528939 0.121196
                      CHANNELS 6 Xposition Yposition Zposition Zrotation Xrotation Yrotation
                      JOINT r_hand
                      {
                        OFFSET -21.4323 0.0438851 0.100557
                        CHANNELS 6 Xposition Yposition Zposition Zrotation Xrotation Yrotation
                        End Site
                        {
                          OFFSET -0.1 0 0
                        }
                      }
                    }
                  }
                }
              }
            }
          }
        }
      }
    }
  }
  JOINT l_up_leg
  {
    OFFSET 8.1689 -3.71937 1.79771
    CHANNELS 6 Xposition Yposition Zposition Zrotation Xrotation Yrotation
    JOINT l_low_leg
    {
      OFFSET -0.753815 -34.2897 -0.579442
      CHANNELS 6 Xposition Yposition Zposition Zrotation Xrotation Yrotation
      JOINT l_foot
      {
        OFFSET -2.05729 -35.731 -5.34947
        CHANNELS 6 Xposition Yposition Zposition Zrotation Xrotation Yrotation
        JOINT l_toes
        {
          OFFSET 0.689027 -8.74169 11.0513
          CHANNELS 6 Xposition Yposition Zposition Zrotation Xrotation Yrotation
          End Site
          {
            OFFSET 0 0 0.1
          }
        }
      }
    }
  }
  JOINT r_up_leg
  {
    OFFSET -8.1689 -3.71937 1.79771
    CHANNELS 6 Xposition Yposition Zposition Zrotation Xrotation Yrotation
    JOINT r_low_leg
    {
      OFFSET 0.753815 -34.2897 -0.579442
      CHANNELS 6 Xposition Yposition Zposition Zrotation Xrotation Yrotation
      JOINT r_foot
      {
        OFFSET 2.05729 -35.731 -5.34947
        CHANNELS 6 Xposition Yposition Zposition Zrotation Xrotation Yrotation
        JOINT r_toes
        {
          OFFSET -0.689027 -8.74169 11.0513
          CHANNELS 6 Xposition Yposition Zposition Zrotation Xrotation Yrotation
          End Site
          {
            OFFSET 0 0 0.1
          }
        }
      }
    }
  }
}
MOTION
Frames: 6
Frame Time: 0.020000
0 82.5076 0 -0 0 -0 0 4.49154 -1.01827 -0 0 -0 0 4.9673 0.947562 -0 0 -0 -9.07426e-18 5.29732 0.101714 -0 0 -0 -9.7687e-18 5.75371 -0.392248 -0 0 -0 -1.74486e-17 6.72623 -1.33183 -0 0 -0 -2.24023e-17 8.3994 -0.808771 -0 0 -0 -2.56828e-17 9.33154 1.39461 -0 0 -0 -1.14257e-17 4.2331 0.632641 -0 0 -0 -1.60217e-17 4.26374 0.373029 -0 0 -0 -1.77726e-17 4.27198 0.676615 -0 0 -0 1.09045 -6.72785 6.66279 -0 0 -0 11.4571 2.87384 -2.89083 -0 0 -0 25.8314 0.0528939 0.121196 -0 0 -0 21.4323 0.0438853 0.100557 -0 0 -0 -1.09045 -6.72784 6.66271 -0 0 -0 -11.4571 2.87384 -2.89083 -0 0 -0 -25.8314 0.0528939 0.121196 -0 0 -0 -21.4323 0.0438851 0.100557 -0 0 -0 8.1689 -3.71937 1.79771 -0 0 -0 -0.753815 -34.2897 -0.579442 -0 0 -0 -2.05729 -35.731 -5.34947 -0 0 -0 0.689027 -8.74169 11.0513 -0 0 -0 -8.1689 -3.71937 1.79771 -0 0 -0 0.753815 -34.2897 -0.579442 -0 0 -0 2.05729 -35.731 -5.34947 -0 0 -0 -0.689027 -8.74169 11.0513 -0 0 -0 
748.797 80.7141 -569.875 7.00164 0.811002 -69.3621 0 4.49154 -1.01827 0.126101 2.02528 0.72113 0 4.9673 0.947562 0.0442871 2.12786 0.897623 -9.07426e-18 5.29732 0.101714 -0.0987271 2.71453 1.06203 -9.7687e-18 5.75371 -0.392248 -0.27938 3.10802 1.13882 -1.74486e-17 6.72623 -1.33183 -0.230427 3.27697 1.11563 -2.24023e-17 8.3994 -0.808771 -0.0216634 3.2253 1.02821 -2.56828e-17 9.33154 1.39461 0.0181413 0.666138 0.13392 -1.14257e-17 4.2331 0.632641 0.639563 -0.345102 13.9959 -1.60217e-17 4.26374 0.373029 -5.98213 -9.63558 6.21827 -1.77726e-17 4.27198 0.676615 -11.77 -10.4578 -0.656818 1.09045 -6.72785 6.66279 11.15 0.0906647 -2.82018 11.4571 2.87384 -2.89083 -32.0706 47.1482 -67.1953 25.8314 0.0528939 0.121196 8.61517 -3.61935 -46.1053 21.4323 0.0438853 0.100557 3.94372 -60.404 3.23707 -1.09045 -6.72784 6.66271 -4.75988 2.73771 4.01975 -11.4571 2.87384 -2.89083 55.297 66.7668 34.4834 -25.8314 0.0528939 0.121196 -9.79482 -5.03105 54.8834 -21.4323 0.0438851 0.100557 77.4411 -83.5108 80.8296 8.1689 -3.71937 1.79771 -2.96515 -18.3304 -21.1878 -0.753815 -34.2897 -0.579442 -1.15451 4.31093 -0.031823 -2.05729 -35.731 -5.34947 0.453279 -0.316469 15.1334 0.689027 -8.74169 11.0513 -3.72721e-16 -8.07563e-16 2.48481e-17 -8.1689 -3.71937 1.79771 -9.68185 -15.8127 27.4037 0.753815 -34.2897 -0.579442 5.68841 20.5359 -0.668389 2.05729 -35.731 -5.34947 6.0119 -9.25124 -16.3865 -0.689027 -8.74169 11.0513 -5.96354e-16 -5.59082e-16 -1.27471e-14 
748.774 80.7892 -570.078 6.87823 0.917029 -69.2577 0 4.49154 -1.01827 0.151689 2.11205 0.688759 0 4.9673 0.947562 0.0757599 2.18821 0.86021 -9.07426e-18 5.29732 0.101714 -0.0698727 2.73662 1.02313 -9.7687e-18 5.75371 -0.392248 -0.251738 3.06827 1.0957 -1.74486e-17 6.72623 -1.33183 -0.216001 3.20087 1.06913 -2.24023e-17 8.3994 -0.808771 -0.0270827 3.12007 0.98127 -2.56828e-17 9.33154 1.39461 0.0230829 0.680458 0.124552 -1.14257e-17 4.2331 0.632641 0.652827 -0.236219 14.0833 -1.60217e-17 4.26374 0.373029 -6.03402 -9.5725 6.25075 -1.77726e-17 4.27198 0.676615 -11.7968 -10.4072 -0.651421 1.09045 -6.72785 6.66279 11.1035 0.200657 -2.96597 11.4571 2.87384 -2.89083 -31.3057 47.3801 -67.5524 25.8314 0.0528939 0.121196 8.58014 -3.58354 -45.8662 21.4323 0.0438853 0.100557 3.44693 -61.1877 2.69934 -1.09045 -6.72784 6.66271 -5.20489 2.68364 3.99142 -11.4571 2.87384 -2.89083 53.266 67.2143 36.9069 -25.8314 0.0528939 0.121196 -9.85615 -5.11778 55.3894 -21.4323 0.0438851 0.100557 79.4124 -83.6478 82.6942 8.1689 -3.71937 1.79771 -2.66665 -18.3729 -21.2914 -0.753815 -34.2897 -0.579442 -1.17159 4.37463 -0.0316412 -2.05729 -35.731 -5.34947 0.0705104 -0.0946429 15.136 0.689027 -8.74169 11.0513 2.31135e-17 -7.95193e-16 1.24782e-17 -8.1689 -3.71937 1.79771 -9.39561 -15.6044 27.2471 0.753815 -34.2897 -0.579442 5.55497 20.0892 -0.629887 2.05729 -35.731 -5.34947 5.85274 -9.07272 -16.3783 -0.689027 -8.74169 11.0513 -2.00519e-16 -5.83822e-16 -1.27594e-14 
748.755 80.8587 -570.315 6.76487 1.07487 -69.0358 0 4.49154 -1.01827 0.176441 2.18205 0.64483 0 4.9673 0.947562 0.107794 2.23336 0.809011 -9.07426e-18 5.29732 0.101714 -0.0398493 2.74422 0.96787 -9.7687e-18 5.75371 -0.392248 -0.222166 3.01998 1.03485 -1.74486e-17 6.72623 -1.33183 -0.202672 3.12083 1.00453 -2.24023e-17 8.3994 -0.808771 -0.0390042 3.0141 0.91602 -2.56828e-17 9.33154 1.39461 0.0263616 0.699414 0.112517 -1.14257e-17 4.2331 0.632641 0.644694 -0.0321622 14.0988 -1.60217e-17 4.26374 0.373029 -6.05005 -9.4728 6.25424 -1.77726e-17 4.27198 0.676615 -11.7917 -10.4507 -0.590935 1.09045 -6.72785 6.66279 10.9865 0.311925 -3.07057 11.4571 2.87384 -2.89083 -31.1364 47.6263 -67.3684 25.8314 0.0528939 0.121196 8.56119 -3.56429 -45.7373 21.4323 0.0438853 0.100557 3.66592 -61.8438 2.5704 -1.09045 -6.72784 6.66271 -5.69081 2.60769 3.88343 -11.4571 2.87384 -2.89083 51.8897 67.3387 38.6799 -25.8314 0.0528939 0.121196 -9.87439 -5.14389 55.5411 -21.4323 0.0438851 0.100557 73.1669 -83.7291 76.4924 8.1689 -3.71937 1.79771 -2.348 -18.4934 -21.4326 -0.753815 -34.2897 -0.579442 -1.20384 4.49486 -0.0312461 -2.05729 -35.731 -5.34947 -0.292431 0.114329 15.1416 0.689027 -8.74169 11.0513 2.48481e-17 -7.95139e-16 1.2424e-17 -8.1689 -3.71937 1.79771 -9.06824 -15.4175 26.9282 0.753815 -34.2897 -0.579442 5.42946 19.6669 -0.594605 2.05729 -35.731 -5.34947 5.56156 -8.86495 -16.3637 -0.689027 -8.74169 11.0513 -5.94619e-16 -5.5919e-16 -1.27471e-14 
748.726 80.9266 -570.584 6.68644 1.24483 -68.7227 0 4.49154 -1.01827 0.198123 2.18443 0.603184 0 4.9673 0.947562 0.13468 2.22927 0.761152 -9.07426e-18 5.29732 0.101714 -0.0158626 2.72511 0.915105 -9.7687e-18 5.75371 -0.392248 -0.199879 2.98392 0.976715 -1.74486e-17 6.72623 -1.33183 -0.196854 3.07789 0.943482 -2.24023e-17 8.3994 -0.808771 -0.058081 2.96065 0.855109 -2.56828e-17 9.33154 1.39461 0.0279614 0.713301 0.0991058 -1.14257e-17 4.2331 0.632641 0.626446 0.167141 14.0146 -1.60217e-17 4.26374 0.373029 -6.05375 -9.39466 6.21505 -1.77726e-17 4.27198 0.676615 -11.7216 -10.5206 -0.496473 1.09045 -6.72785 6.66279 10.7372 0.402894 -3.16106 11.4571 2.87384 -2.89083 -31.4631 47.7231 -66.6747 25.8314 0.0528939 0.121196 8.51834 -3.52108 -45.4469 21.4323 0.0438853 0.100557 3.52558 -62.9516 2.20602 -1.09045 -6.72784 6.66271 -6.0954 2.51814 3.72378 -11.4571 2.87384 -2.89083 50.8749 67.3919 39.9868 -25.8314 0.0528939 0.121196 -9.87549 -5.14548 55.5503 -21.4323 0.0438851 0.100557 62.528 -83.5635 65.9247 8.1689 -3.71937 1.79771 -2.05463 -18.7298 -21.6214 -0.753815 -34.2897 -0.579442 -1.26638 4.72797 -0.0302865 -2.05729 -35.731 -5.34947 -0.642172 0.330634 15.1524 0.689027 -8.74169 11.0513 4.20683e-16 -7.82769e-16 5.42069e-20 -8.1689 -3.71937 1.79771 -8.7554 -15.2441 26.5324 0.753815 -34.2897 -0.579442 5.30295 19.2391 -0.559962 2.05729 -35.731 -5.34947 5.33391 -8.70527 -16.361 -0.689027 -8.74169 11.0513 -9.92189e-16 -5.46712e-16 -1.27223e-14 
748.696 80.9927 -570.867 6.61169 1.40066 -68.3808 0 4.49154 -1.01827 0.201073 2.24206 0.56394 0 4.9673 0.947562 0.143903 2.2549 0.713439 -9.07426e-18 5.29732 0.101714 -0.00659667 2.70611 0.862849 -9.7687e-18 5.75371 -0.392248 -0.188714 2.89983 0.918637 -1.74486e-17 6.72623 -1.33183 -0.197998 2.96397 0.883615 -2.24023e-17 8.3994 -0.808771 -0.0785791 2.81716 0.794686 -2.56828e-17 9.33154 1.39461 0.0315692 0.73766 0.0855415 -1.14257e-17 4.2331 0.632641 0.59451 0.424353 13.9266 -1.60217e-17 4.26374 0.373029 -6.07085 -9.32186 6.17126 -1.77726e-17 4.27198 0.676615 -11.5975 -10.5968 -0.434413 1.09045 -6.72785 6.66279 10.4872 0.560237 -3.29404 11.4571 2.87384 -2.89083 -31.4657 47.9074 -65.9806 25.8314 0.0528939 0.121196 8.48584 -3.4886 -45.2276 21.4323 0.0438853 0.100557 2.76412 -64.374 1.27036 -1.09045 -6.72784 6.66271 -6.53228 2.47957 3.57017 -11.4571 2.87384 -2.89083 50.4446 67.378 40.633 -25.8314 0.0528939 0.121196 -9.84386 -5.10027 55.2875 -21.4323 0.0438851 0.100557 48.2153 -82.6498 51.5606 8.1689 -3.71937 1.79771 -1.78934 -19.0401 -21.7922 -0.753815 -34.2897 -0.579442 -1.35691 5.06525 -0.0284452 -2.05729 -35.731 -5.34947 -0.970191 0.561051 15.1643 0.689027 -8.74169 11.0513 2.65874e-17 -7.95084e-16 1.23697e-17 -8.1689 -3.71937 1.79771 -8.47328 -15.0459 26.1144 0.753815 -34.2897 -0.579442 5.16705 18.7772 -0.523783 2.05729 -35.731 -5.34947 5.18035 -8.58017 -16.3568 -0.689027 -8.74169 11.0513 -5.98093e-16 -5.59028e-16 -1.2747e-14 
